<svg width="39" height="39" viewBox="0 0 39 39" fill="none" xmlns="http://www.w3.org/2000/svg">
<path fill-rule="evenodd" clip-rule="evenodd" d="M23.5801 1.80097V1.80099L23.8414 4.41344C24.0047 6.04698 24.0864 6.86375 24.6392 7.09273C25.192 7.32171 25.8273 6.80192 27.0979 5.76235L29.1299 4.09985C29.7956 3.55514 30.1285 3.28279 30.5133 3.30198C30.8982 3.32117 31.2023 3.6253 31.8105 4.23356L34.7663 7.1893C35.3745 7.79755 35.6787 8.10168 35.6979 8.48651C35.7171 8.87135 35.4447 9.20423 34.9 9.86999L33.2374 11.9021C32.1978 13.1727 31.678 13.808 31.907 14.3608C32.136 14.9136 32.9527 14.9953 34.5863 15.1586L37.199 15.4199C38.0549 15.5055 38.4829 15.5483 38.7415 15.834C39 16.1197 39 16.5498 39 17.41V21.59C39 22.4502 39 22.8803 38.7415 23.166C38.4829 23.4517 38.0549 23.4945 37.199 23.5801L34.5871 23.8413C32.9535 24.0047 32.1368 24.0863 31.9078 24.6391C31.6788 25.192 32.1986 25.8273 33.2382 27.0978L34.9001 29.1292C35.4448 29.7949 35.7172 30.1278 35.698 30.5126C35.6788 30.8975 35.3747 31.2016 34.7664 31.8098L31.8107 34.7656C31.2024 35.3738 30.8983 35.678 30.5135 35.6972C30.1286 35.7164 29.7958 35.444 29.13 34.8993L27.098 33.2367C25.8274 32.1972 25.1921 31.6774 24.6393 31.9064C24.0865 32.1353 24.0048 32.9521 23.8415 34.5857L23.5801 37.199C23.4945 38.0549 23.4517 38.4829 23.166 38.7415C22.8804 39 22.4503 39 21.5901 39H17.41C16.5498 39 16.1197 39 15.834 38.7415C15.5483 38.4829 15.5055 38.0549 15.4199 37.199L15.1587 34.5863C14.9953 32.9527 14.9136 32.136 14.3608 31.907C13.808 31.678 13.1727 32.1978 11.9021 33.2374L9.86981 34.9002C9.20405 35.4449 8.87118 35.7172 8.48634 35.698C8.10151 35.6788 7.79738 35.3747 7.18912 34.7665L4.23338 31.8107C3.62513 31.2025 3.321 30.8983 3.30181 30.5135C3.28261 30.1287 3.55497 29.7958 4.09968 29.13L5.76234 27.0979C6.80191 25.8273 7.3217 25.192 7.09272 24.6392C6.86374 24.0864 6.04697 24.0047 4.41343 23.8413L1.80099 23.5801H1.80097C0.945055 23.4945 0.517093 23.4517 0.258547 23.166C0 22.8803 0 22.4502 0 21.59V17.41C0 16.5498 0 16.1197 0.258547 15.834C0.517095 15.5483 0.945061 15.5055 1.80099 15.4199L4.41422 15.1586C6.04776 14.9952 6.86453 14.9135 7.09351 14.3607C7.32249 13.8079 6.8027 13.1726 5.76313 11.902L4.09983 9.86911C3.55512 9.20335 3.28276 8.87047 3.30195 8.48563C3.32115 8.1008 3.62528 7.79667 4.23353 7.18842L7.18927 4.23268C7.79752 3.62442 8.10165 3.3203 8.48649 3.3011C8.87132 3.28191 9.2042 3.55426 9.86996 4.09898L11.9022 5.76172C13.1728 6.80129 13.8081 7.32108 14.3609 7.0921C14.9137 6.86311 14.9954 6.04635 15.1587 4.41281L15.4199 1.80099C15.5055 0.945061 15.5483 0.517095 15.834 0.258547C16.1197 0 16.5498 0 17.41 0H21.5901C22.4503 0 22.8804 0 23.166 0.258547C23.4517 0.517093 23.4945 0.945055 23.5801 1.80097ZM19.5001 27.3C23.8079 27.3 27.3001 23.8078 27.3001 19.5C27.3001 15.1922 23.8079 11.7 19.5001 11.7C15.1923 11.7 11.7001 15.1922 11.7001 19.5C11.7001 23.8078 15.1923 27.3 19.5001 27.3Z" fill="#006D77"/>
</svg>
